<svg height='1600' width='1600' xmlns='http://www.w3.org/2000/svg'>
    <g>
        <path d="M1045,933 C1045,933,579,467,579,467 C573,461,564,457,556,457 C548,457,539,461,533,467 C533,467,483,517,483,517 C477,523,473,532,473,540 C473,548,477,557,483,563 C483,563,876,956,876,956 C876,956,483,1349,483,1349 C477,1355,473,1364,473,1372 C473,1381,477,1389,483,1395 C483,1395,533,1445,533,1445 C539,1451,548,1455,556,1455 C564,1455,573,1451,579,1445 C579,1445,1045,979,1045,979 C1051,973,1055,964,1055,956 C1055,948,1051,939,1045,933Z"/>
    </g>
</svg>
